<?xml version="1.0" standalone="no"?>
<!DOCTYPE svg PUBLIC "-//W3C//DTD SVG 20010904//EN"
 "http://www.w3.org/TR/2001/REC-SVG-20010904/DTD/svg10.dtd">
<svg version="1.0" xmlns="http://www.w3.org/2000/svg"
 width="460.000000pt" height="460.000000pt" viewBox="0 0 460.000000 460.000000"
 preserveAspectRatio="xMidYMid meet">
<metadata>
Created by potrace 1.14, written by Peter Selinger 2001-2017
</metadata>
<g transform="translate(0.000000,460.000000) scale(0.100000,-0.100000)"
fill="#000000" stroke="none">
<path d="M1540 3868 c0 -4 -6 -8 -13 -8 -8 0 -22 -9 -32 -20 -10 -11 -21 -17
-26 -15 -4 3 -12 -2 -17 -11 -5 -9 -13 -16 -18 -16 -17 0 -84 -38 -84 -48 0
-6 -3 -9 -7 -8 -12 4 -103 -45 -103 -54 0 -5 -4 -6 -10 -3 -5 3 -10 3 -11 -2
-4 -44 -4 -66 2 -75 4 -7 3 -20 -2 -29 -5 -10 -6 -20 -1 -23 4 -2 7 -531 7
-1174 l0 -1170 45 -23 c25 -13 47 -26 50 -30 3 -3 25 -17 50 -29 25 -12 55
-28 67 -34 13 -6 23 -14 23 -18 0 -5 7 -8 15 -8 8 0 15 -5 15 -11 0 -5 4 -8 9
-4 6 3 14 -3 20 -12 5 -10 12 -17 15 -15 3 1 7 2 9 1 29 -9 55 -6 76 8 14 10
28 18 31 18 3 1 29 17 59 36 30 19 58 33 63 31 4 -1 8 1 8 6 0 4 15 14 33 21
17 8 38 21 45 28 7 7 20 13 28 13 8 0 14 4 14 9 0 5 8 11 18 15 9 3 44 22 77
41 33 20 72 41 88 47 15 7 27 15 27 19 0 4 14 12 30 19 17 7 30 17 30 22 0 5
4 7 9 3 6 -3 14 3 20 12 6 10 11 15 11 11 0 -6 29 9 140 73 14 8 36 22 49 31
13 10 27 15 32 12 5 -3 9 -1 9 4 0 6 14 15 30 21 17 5 30 15 30 22 0 7 3 9 6
6 4 -4 20 3 35 14 16 11 29 17 29 13 0 -4 8 3 19 14 10 12 21 18 25 14 4 -4
13 0 19 9 7 9 21 19 32 23 21 6 119 66 143 86 6 6 12 8 12 5 0 -4 13 3 29 14
16 12 34 21 40 21 6 0 11 5 11 11 0 5 5 7 10 4 6 -3 10 -1 10 5 0 6 4 9 9 5 5
-3 13 0 16 5 4 6 17 16 28 21 12 5 40 20 62 34 22 13 50 28 62 34 11 5 24 15
28 21 3 5 11 8 16 5 5 -4 9 -3 9 2 0 4 15 15 33 23 17 7 37 18 42 22 31 25 84
55 89 50 3 -3 6 0 6 7 0 7 5 9 10 6 6 -3 10 -2 10 3 0 5 18 17 40 27 21 10 49
27 62 39 12 11 24 20 25 19 7 -4 43 11 43 18 0 5 7 9 15 9 8 0 15 5 15 11 0 5
5 7 10 4 6 -3 10 -2 10 2 0 5 20 17 45 27 25 11 45 22 45 26 0 4 14 13 30 20
17 7 31 20 31 29 1 9 2 101 3 204 l2 189 -27 19 c-14 10 -29 16 -33 12 -3 -3
-6 -2 -6 4 0 9 -25 21 -46 21 -3 1 -13 9 -22 20 -9 10 -34 25 -55 31 -21 7
-36 15 -33 19 3 3 -27 21 -67 41 -39 19 -74 39 -75 43 -2 5 -8 6 -13 2 -5 -3
-9 -1 -9 4 0 5 -13 15 -30 22 -16 7 -30 17 -30 22 0 5 -4 6 -10 3 -5 -3 -10
-3 -10 2 0 4 -23 19 -50 32 -28 14 -50 29 -50 34 0 4 -4 5 -10 2 -5 -3 -10 -1
-10 5 0 6 -4 8 -10 5 -5 -3 -10 -2 -10 4 0 6 -11 13 -25 17 -14 3 -25 10 -25
15 0 5 -7 9 -15 9 -8 0 -15 5 -15 11 0 5 -4 8 -8 5 -5 -3 -18 3 -28 12 -10 10
-23 20 -29 21 -30 10 -55 25 -55 33 0 5 -4 7 -9 3 -5 -3 -16 2 -24 10 -9 8
-18 15 -21 15 -4 0 -24 11 -46 25 -22 14 -40 22 -40 18 0 -5 -5 0 -11 10 -5 9
-16 17 -23 17 -8 0 -19 7 -26 15 -7 8 -19 15 -27 15 -7 0 -23 9 -35 20 -12 10
-25 17 -30 14 -4 -3 -8 0 -8 6 0 6 -4 8 -10 5 -5 -3 -10 -1 -10 4 0 6 -7 11
-15 11 -8 0 -15 5 -15 10 0 6 -6 10 -14 10 -8 0 -22 7 -30 16 -9 8 -16 12 -16
7 0 -4 -4 -3 -8 2 -4 6 -25 19 -47 31 -58 30 -89 48 -95 55 -3 4 -30 19 -60
35 -30 15 -61 34 -68 41 -8 7 -17 11 -22 8 -5 -3 -10 -1 -12 4 -1 4 -52 36
-113 70 -60 34 -117 66 -125 71 -8 6 -23 13 -32 16 -10 4 -18 9 -18 13 0 3
-15 12 -32 20 -18 8 -35 17 -38 20 -3 4 -16 12 -30 19 -43 21 -135 75 -140 82
-20 25 -120 49 -120 28z m430 -1028 c0 -5 6 -10 14 -10 18 0 96 -40 120 -62
11 -10 26 -18 33 -18 7 0 13 -4 13 -9 0 -5 8 -11 18 -15 21 -7 76 -39 97 -56
8 -7 15 -9 15 -6 0 4 10 -2 22 -14 12 -11 26 -20 31 -20 6 0 32 -13 58 -30 27
-16 49 -26 49 -22 0 4 5 -1 11 -10 5 -10 19 -18 29 -18 11 0 20 -4 20 -10 0
-5 5 -10 11 -10 6 0 24 -9 40 -21 16 -11 29 -17 29 -12 0 4 5 1 10 -7 5 -8 13
-15 17 -15 18 -1 42 -21 35 -31 -4 -5 -28 -20 -54 -32 -27 -12 -48 -27 -48
-32 0 -6 -3 -9 -7 -8 -13 3 -63 -25 -63 -34 0 -5 -4 -7 -8 -4 -5 3 -25 -6 -44
-19 -20 -13 -38 -21 -42 -18 -3 4 -6 1 -6 -5 0 -11 -38 -28 -53 -24 -5 1 -6
-2 -3 -7 4 -5 -3 -12 -14 -16 -11 -3 -20 -11 -20 -16 0 -6 -4 -8 -8 -5 -4 2
-27 -9 -51 -25 -24 -16 -50 -29 -58 -29 -7 0 -13 -4 -13 -10 0 -5 -7 -10 -15
-10 -8 0 -15 -5 -15 -10 0 -6 -3 -9 -7 -8 -13 3 -63 -25 -63 -34 0 -5 -4 -7
-9 -4 -5 3 -14 -1 -21 -9 -7 -8 -19 -15 -26 -15 -8 0 -14 -4 -14 -9 0 -12 -43
-22 -50 -12 -4 7 -5 650 -1 774 1 20 6 27 21 27 11 0 20 -4 20 -10z"/>
</g>
</svg>
