<svg xmlns="http://www.w3.org/2000/svg" xmlns:xlink="http://www.w3.org/1999/xlink" width="500" zoomAndPan="magnify" viewBox="0 0 375 374.999991" height="500" preserveAspectRatio="xMidYMid meet" version="1.0"><defs><g/></defs><g fill="#ffffff" fill-opacity="1"><g transform="translate(85.825201, 155.552063)"><g><path d="M 51.015625 -6.6875 C 51.265625 -6.382812 51.554688 -5.953125 51.890625 -5.390625 C 52.222656 -4.835938 52.1875 -4.359375 51.78125 -3.953125 C 51.425781 -3.546875 50.941406 -3.492188 50.328125 -3.796875 C 49.722656 -4.097656 49.296875 -4.40625 49.046875 -4.71875 C 47.523438 -6.488281 45.722656 -7.753906 43.640625 -8.515625 C 41.566406 -9.273438 39.410156 -9.628906 37.171875 -9.578125 C 33.222656 -4.003906 28.914062 1.238281 24.25 6.15625 C 21.414062 9.09375 18.476562 11.90625 15.4375 14.59375 C 14.113281 15.757812 12.703125 16.820312 11.203125 17.78125 C 9.710938 18.75 8.03125 19.207031 6.15625 19.15625 C 5.550781 19.101562 5.003906 18.863281 4.515625 18.4375 C 4.035156 18.007812 3.671875 17.566406 3.421875 17.109375 C 2.359375 15.179688 1.960938 13.316406 2.234375 11.515625 C 2.515625 9.710938 3.175781 8 4.21875 6.375 C 5.257812 4.757812 6.4375 3.242188 7.75 1.828125 C 9.832031 -0.347656 12 -2.453125 14.25 -4.484375 C 16.507812 -6.515625 18.957031 -8.289062 21.59375 -9.8125 C 25.445312 -12.039062 29.578125 -13.28125 33.984375 -13.53125 C 33.984375 -13.53125 33.992188 -13.554688 34.015625 -13.609375 C 34.046875 -13.660156 34.085938 -13.710938 34.140625 -13.765625 C 36.015625 -16.453125 37.890625 -19.273438 39.765625 -22.234375 C 41.640625 -25.203125 43.082031 -28.285156 44.09375 -31.484375 C 44.25 -31.929688 44.425781 -32.585938 44.625 -33.453125 C 44.832031 -34.316406 44.972656 -35.21875 45.046875 -36.15625 C 45.117188 -37.09375 45.015625 -37.875 44.734375 -38.5 C 44.460938 -39.132812 43.921875 -39.453125 43.109375 -39.453125 C 41.585938 -39.453125 40.015625 -39.171875 38.390625 -38.609375 C 36.773438 -38.054688 35.28125 -37.476562 33.90625 -36.875 C 31.019531 -35.65625 28.296875 -34.132812 25.734375 -32.3125 C 23.171875 -30.488281 20.828125 -28.382812 18.703125 -26 C 18.398438 -25.695312 17.984375 -25.617188 17.453125 -25.765625 C 16.921875 -25.921875 16.425781 -26.238281 15.96875 -26.71875 C 15.507812 -27.207031 15.175781 -27.71875 14.96875 -28.25 C 14.769531 -28.78125 14.820312 -29.222656 15.125 -29.578125 C 17.96875 -32.671875 21.175781 -35.34375 24.75 -37.59375 C 28.320312 -39.851562 32.132812 -41.515625 36.1875 -42.578125 C 37.8125 -43.035156 39.445312 -43.3125 41.09375 -43.40625 C 42.738281 -43.507812 44.269531 -42.976562 45.6875 -41.8125 C 46.90625 -40.800781 47.78125 -39.5625 48.3125 -38.09375 C 48.84375 -36.625 49.0625 -35.101562 48.96875 -33.53125 C 48.8125 -31.039062 48.238281 -28.617188 47.25 -26.265625 C 46.257812 -23.910156 45.082031 -21.640625 43.71875 -19.453125 C 42.351562 -17.273438 40.984375 -15.175781 39.609375 -13.15625 C 41.785156 -12.75 43.847656 -12.015625 45.796875 -10.953125 C 47.753906 -9.890625 49.492188 -8.46875 51.015625 -6.6875 Z M 21.828125 1.515625 C 24.765625 -1.617188 27.550781 -4.910156 30.1875 -8.359375 C 28.15625 -7.753906 26.253906 -6.921875 24.484375 -5.859375 C 22.304688 -4.585938 20.253906 -3.113281 18.328125 -1.4375 C 16.398438 0.226562 14.570312 1.972656 12.84375 3.796875 C 11.9375 4.710938 10.945312 5.753906 9.875 6.921875 C 8.8125 8.085938 7.898438 9.34375 7.140625 10.6875 C 6.378906 12.03125 6.050781 13.410156 6.15625 14.828125 C 7.625 14.421875 8.976562 13.671875 10.21875 12.578125 C 11.46875 11.492188 12.625 10.46875 13.6875 9.5 C 16.519531 6.914062 19.234375 4.253906 21.828125 1.515625 Z M 21.828125 1.515625 "/></g></g></g><g fill="#ffffff" fill-opacity="1"><g transform="translate(140.111597, 155.552063)"><g><path d="M 8.890625 -10.03125 C 9.097656 -8.0625 8.9375 -6.125 8.40625 -4.21875 C 7.875 -2.320312 7 -0.613281 5.78125 0.90625 C 4.664062 2.382812 3.304688 3.335938 1.703125 3.765625 C 0.109375 4.191406 -1.394531 3.617188 -2.8125 2.046875 C -4.082031 0.628906 -4.613281 -0.910156 -4.40625 -2.578125 C -4.207031 -4.253906 -3.550781 -5.878906 -2.4375 -7.453125 C -1.320312 -9.023438 -0.03125 -10.429688 1.4375 -11.671875 C 2.914062 -12.910156 4.257812 -13.835938 5.46875 -14.453125 C 5.976562 -14.703125 6.550781 -14.597656 7.1875 -14.140625 C 7.820312 -13.679688 8.316406 -13.109375 8.671875 -12.421875 C 9.023438 -11.742188 9.023438 -11.203125 8.671875 -10.796875 C 8.765625 -10.546875 8.835938 -10.289062 8.890625 -10.03125 Z M 3.71875 -4.9375 C 4.175781 -5.957031 4.507812 -7.023438 4.71875 -8.140625 C 3.957031 -7.472656 3.269531 -6.757812 2.65625 -6 C 1.894531 -5.039062 1.265625 -4.003906 0.765625 -2.890625 C 0.609375 -2.640625 0.476562 -2.382812 0.375 -2.125 C 0.28125 -1.875 0.179688 -1.625 0.078125 -1.375 C 0.078125 -1.320312 0.0625 -1.191406 0.03125 -0.984375 C 0.0078125 -0.785156 -0.0234375 -0.609375 -0.078125 -0.453125 C 0.222656 -0.710938 0.515625 -0.929688 0.796875 -1.109375 C 1.078125 -1.285156 1.34375 -1.5 1.59375 -1.75 C 2.457031 -2.707031 3.164062 -3.769531 3.71875 -4.9375 Z M 3.71875 -4.9375 "/></g></g></g><g fill="#ffffff" fill-opacity="1"><g transform="translate(154.177403, 155.552063)"><g><path d="M 13.90625 -10.1875 C 14.519531 -10.394531 15.039062 -10.28125 15.46875 -9.84375 C 15.90625 -9.414062 16.144531 -8.894531 16.1875 -8.28125 C 16.238281 -7.675781 15.9375 -7.25 15.28125 -7 C 12.394531 -5.882812 9.785156 -4.410156 7.453125 -2.578125 C 7.804688 -1.460938 7.90625 -0.347656 7.75 0.765625 C 7.550781 1.972656 7.054688 3.1875 6.265625 4.40625 C 5.484375 5.625 4.507812 6.460938 3.34375 6.921875 C 2.175781 7.378906 0.960938 7.070312 -0.296875 6 C -1.671875 4.832031 -2.34375 3.601562 -2.3125 2.3125 C -2.289062 1.019531 -1.796875 -0.253906 -0.828125 -1.515625 C 0.128906 -2.785156 1.316406 -4.003906 2.734375 -5.171875 C 2.179688 -5.828125 1.613281 -6.445312 1.03125 -7.03125 C 0.445312 -7.613281 -0.046875 -8.3125 -0.453125 -9.125 C -0.910156 -9.988281 -1.140625 -10.960938 -1.140625 -12.046875 C -1.140625 -13.140625 -0.847656 -14.050781 -0.265625 -14.78125 C 0.316406 -15.519531 1.265625 -15.863281 2.578125 -15.8125 C 3.140625 -15.757812 3.671875 -15.519531 4.171875 -15.09375 C 4.679688 -14.664062 5.066406 -14.195312 5.328125 -13.6875 C 5.472656 -13.332031 5.53125 -12.910156 5.5 -12.421875 C 5.476562 -11.941406 5.191406 -11.703125 4.640625 -11.703125 C 3.773438 -11.804688 3.253906 -11.617188 3.078125 -11.140625 C 2.898438 -10.660156 2.898438 -10.113281 3.078125 -9.5 C 3.253906 -8.894531 3.492188 -8.390625 3.796875 -7.984375 C 3.953125 -7.773438 4.128906 -7.570312 4.328125 -7.375 C 4.535156 -7.175781 4.710938 -6.972656 4.859375 -6.765625 C 6.785156 -7.679688 8.570312 -8.390625 10.21875 -8.890625 C 11.875 -9.398438 13.101562 -9.832031 13.90625 -10.1875 Z M 13.90625 -10.1875 "/></g></g></g><g fill="#ffffff" fill-opacity="1"><g transform="translate(168.699395, 155.552063)"><g><path d="M 35.4375 -9.890625 C 35.9375 -10.140625 36.441406 -10.085938 36.953125 -9.734375 C 37.460938 -9.378906 37.789062 -8.921875 37.9375 -8.359375 C 38.09375 -7.804688 37.835938 -7.351562 37.171875 -7 C 34.898438 -5.675781 32.570312 -4.28125 30.1875 -2.8125 C 27.800781 -1.34375 25.34375 -0.175781 22.8125 0.6875 C 21.394531 1.144531 20 1.054688 18.625 0.421875 C 17.257812 -0.210938 16.5 -1.367188 16.34375 -3.046875 C 16.289062 -3.804688 16.363281 -4.578125 16.5625 -5.359375 C 16.769531 -6.140625 17.003906 -6.890625 17.265625 -7.609375 C 17.460938 -8.109375 17.660156 -8.613281 17.859375 -9.125 C 18.066406 -9.632812 18.25 -10.140625 18.40625 -10.640625 C 12.21875 -7.191406 6.742188 -2.832031 1.984375 2.4375 C 1.722656 2.738281 1.351562 2.800781 0.875 2.625 C 0.394531 2.445312 0.0234375 2.253906 -0.234375 2.046875 C -1.898438 0.785156 -2.734375 -0.640625 -2.734375 -2.234375 C -2.734375 -3.835938 -2.429688 -5.550781 -1.828125 -7.375 C -0.253906 -11.726562 1.46875 -16.035156 3.34375 -20.296875 C 5.269531 -24.609375 7.382812 -28.828125 9.6875 -32.953125 C 12 -37.085938 14.445312 -41.109375 17.03125 -45.015625 C 17.28125 -45.421875 17.660156 -45.546875 18.171875 -45.390625 C 18.679688 -45.234375 19.160156 -44.925781 19.609375 -44.46875 C 20.066406 -44.019531 20.410156 -43.515625 20.640625 -42.953125 C 20.867188 -42.398438 20.859375 -41.921875 20.609375 -41.515625 C 16.140625 -34.828125 12.207031 -27.90625 8.8125 -20.75 C 7.144531 -17.207031 5.578125 -13.585938 4.109375 -9.890625 C 3.492188 -8.316406 2.882812 -6.664062 2.28125 -4.9375 C 4.207031 -6.71875 6.207031 -8.367188 8.28125 -9.890625 C 10.363281 -11.410156 12.519531 -12.828125 14.75 -14.140625 C 15.863281 -14.796875 16.941406 -15.25 17.984375 -15.5 C 19.023438 -15.757812 20.078125 -15.410156 21.140625 -14.453125 C 21.992188 -13.640625 22.484375 -12.710938 22.609375 -11.671875 C 22.742188 -10.628906 22.679688 -9.578125 22.421875 -8.515625 C 22.273438 -7.648438 22.035156 -6.8125 21.703125 -6 C 21.378906 -5.195312 21.085938 -4.390625 20.828125 -3.578125 C 23.265625 -4.335938 25.757812 -5.257812 28.3125 -6.34375 C 30.875 -7.4375 33.25 -8.617188 35.4375 -9.890625 Z M 35.4375 -9.890625 "/></g></g></g><g fill="#ffffff" fill-opacity="1"><g transform="translate(204.510165, 155.552063)"><g><path d="M 26.6875 -9.65625 C 27.144531 -10.113281 27.648438 -10.210938 28.203125 -9.953125 C 28.765625 -9.703125 29.160156 -9.296875 29.390625 -8.734375 C 29.617188 -8.179688 29.53125 -7.675781 29.125 -7.21875 C 27.601562 -5.644531 26.054688 -4.085938 24.484375 -2.546875 C 22.910156 -1.003906 21.238281 0.347656 19.46875 1.515625 C 18.601562 2.128906 17.710938 2.585938 16.796875 2.890625 C 15.890625 3.191406 14.953125 3.039062 13.984375 2.4375 C 12.972656 1.820312 12.300781 1.019531 11.96875 0.03125 C 11.644531 -0.945312 11.554688 -2 11.703125 -3.125 C 11.703125 -3.164062 11.703125 -3.210938 11.703125 -3.265625 C 11.703125 -3.316406 11.726562 -3.367188 11.78125 -3.421875 C 10.5625 -2.304688 9.316406 -1.238281 8.046875 -0.21875 C 6.785156 0.789062 5.445312 1.703125 4.03125 2.515625 C 2.757812 3.273438 1.476562 3.71875 0.1875 3.84375 C -1.101562 3.96875 -2.253906 3.347656 -3.265625 1.984375 C -4.128906 0.816406 -4.429688 -0.578125 -4.171875 -2.203125 C -3.921875 -3.828125 -3.378906 -5.398438 -2.546875 -6.921875 C -1.710938 -8.441406 -0.890625 -9.679688 -0.078125 -10.640625 C 0.222656 -10.992188 0.640625 -11.082031 1.171875 -10.90625 C 1.710938 -10.726562 2.207031 -10.410156 2.65625 -9.953125 C 3.113281 -9.503906 3.441406 -9.007812 3.640625 -8.46875 C 3.847656 -7.9375 3.800781 -7.492188 3.5 -7.140625 C 2.9375 -6.484375 2.453125 -5.785156 2.046875 -5.046875 C 1.640625 -4.316406 1.285156 -3.570312 0.984375 -2.8125 C 0.628906 -2.050781 0.378906 -1.394531 0.234375 -0.84375 C 0.835938 -1.144531 1.429688 -1.507812 2.015625 -1.9375 C 2.597656 -2.363281 3.164062 -2.78125 3.71875 -3.1875 C 5.59375 -4.65625 7.378906 -6.1875 9.078125 -7.78125 C 10.773438 -9.382812 12.488281 -10.972656 14.21875 -12.546875 C 14.726562 -13.003906 15.296875 -13.039062 15.921875 -12.65625 C 16.554688 -12.28125 17.085938 -11.757812 17.515625 -11.09375 C 17.953125 -10.4375 18.09375 -9.859375 17.9375 -9.359375 C 17.632812 -8.234375 17.316406 -7.113281 16.984375 -6 C 16.660156 -4.882812 16.375 -3.769531 16.125 -2.65625 C 16.070312 -2.457031 16.019531 -2.234375 15.96875 -1.984375 C 17.03125 -2.234375 18.242188 -2.8125 19.609375 -3.71875 C 20.984375 -4.632812 22.300781 -5.648438 23.5625 -6.765625 C 24.832031 -7.878906 25.875 -8.84375 26.6875 -9.65625 Z M 26.6875 -9.65625 "/></g></g></g><g fill="#ffffff" fill-opacity="1"><g transform="translate(231.50131, 155.552063)"><g><path d="M 28.515625 -9.734375 C 29.015625 -10.140625 29.554688 -10.203125 30.140625 -9.921875 C 30.722656 -9.640625 31.164062 -9.21875 31.46875 -8.65625 C 31.78125 -8.101562 31.707031 -7.625 31.25 -7.21875 C 29.476562 -5.644531 27.691406 -4.097656 25.890625 -2.578125 C 24.085938 -1.054688 22.171875 0.28125 20.140625 1.4375 C 19.234375 2 18.234375 2.519531 17.140625 3 C 16.054688 3.476562 14.957031 3.644531 13.84375 3.5 C 12.675781 3.394531 11.660156 2.9375 10.796875 2.125 C 9.929688 1.3125 9.320312 0.347656 8.96875 -0.765625 C 8.769531 -1.472656 8.691406 -2.15625 8.734375 -2.8125 C 8.785156 -3.46875 8.914062 -4.101562 9.125 -4.71875 C 7.09375 -3.394531 5.164062 -1.882812 3.34375 -0.1875 C 1.519531 1.507812 -0.554688 2.8125 -2.890625 3.71875 C -3.398438 3.925781 -3.941406 3.835938 -4.515625 3.453125 C -5.097656 3.078125 -5.566406 2.582031 -5.921875 1.96875 C -6.285156 1.363281 -6.414062 0.804688 -6.3125 0.296875 C -5.800781 -1.984375 -4.925781 -4.195312 -3.6875 -6.34375 C -2.445312 -8.5 -0.890625 -10.285156 0.984375 -11.703125 C 2.503906 -12.816406 4.113281 -13.257812 5.8125 -13.03125 C 7.507812 -12.8125 8.914062 -11.988281 10.03125 -10.5625 C 10.4375 -10.71875 10.84375 -10.875 11.25 -11.03125 C 11.757812 -11.125 12.34375 -10.945312 13 -10.5 C 13.40625 -10.1875 13.785156 -9.816406 14.140625 -9.390625 C 14.492188 -8.960938 14.695312 -8.546875 14.75 -8.140625 C 14.800781 -7.878906 14.773438 -7.648438 14.671875 -7.453125 C 14.617188 -6.835938 14.488281 -6.25 14.28125 -5.6875 C 14.082031 -5.132812 13.882812 -4.554688 13.6875 -3.953125 C 13.476562 -3.398438 13.320312 -2.84375 13.21875 -2.28125 C 13.125 -1.71875 13 -1.132812 12.84375 -0.53125 C 12.894531 -0.53125 12.929688 -0.53125 12.953125 -0.53125 C 12.984375 -0.53125 13.023438 -0.53125 13.078125 -0.53125 C 14.191406 -0.6875 15.484375 -1.117188 16.953125 -1.828125 C 18.421875 -2.535156 19.898438 -3.382812 21.390625 -4.375 C 22.890625 -5.363281 24.273438 -6.335938 25.546875 -7.296875 C 26.816406 -8.265625 27.804688 -9.078125 28.515625 -9.734375 Z M 1.0625 -4.640625 C 2.070312 -5.453125 3.054688 -6.25 4.015625 -7.03125 C 4.984375 -7.820312 6.003906 -8.546875 7.078125 -9.203125 C 7.023438 -9.203125 7 -9.203125 7 -9.203125 C 6.894531 -9.203125 6.765625 -9.1875 6.609375 -9.15625 C 6.460938 -9.132812 6.3125 -9.097656 6.15625 -9.046875 C 5.75 -8.941406 5.351562 -8.765625 4.96875 -8.515625 C 4.59375 -8.265625 4.253906 -8.007812 3.953125 -7.75 C 3.398438 -7.300781 2.894531 -6.820312 2.4375 -6.3125 C 1.976562 -5.800781 1.570312 -5.296875 1.21875 -4.796875 C 1.164062 -4.742188 1.140625 -4.703125 1.140625 -4.671875 C 1.140625 -4.648438 1.113281 -4.640625 1.0625 -4.640625 Z M 1.0625 -4.640625 "/></g></g></g><g fill="#ffffff" fill-opacity="1"><g transform="translate(260.471566, 155.552063)"><g/></g></g><g fill="#ffffff" fill-opacity="1"><g transform="translate(6.420146, 261.310713)"><g><path d="M 36.34375 -7.75 C 36.644531 -8.101562 37.0625 -8.191406 37.59375 -8.015625 C 38.125 -7.835938 38.617188 -7.519531 39.078125 -7.0625 C 39.535156 -6.613281 39.863281 -6.125 40.0625 -5.59375 C 40.269531 -5.0625 40.195312 -4.613281 39.84375 -4.25 C 37.96875 -2.175781 35.960938 -0.203125 33.828125 1.671875 C 31.703125 3.546875 29.5 5.320312 27.21875 7 C 25.289062 8.363281 23.238281 9.765625 21.0625 11.203125 C 18.882812 12.648438 16.628906 13.707031 14.296875 14.375 C 12.472656 14.925781 10.660156 15.007812 8.859375 14.625 C 7.054688 14.25 5.546875 13.273438 4.328125 11.703125 C 3.367188 10.492188 2.757812 9.113281 2.5 7.5625 C 2.25 6.019531 2.175781 4.445312 2.28125 2.84375 C 2.382812 1.25 2.5625 -0.253906 2.8125 -1.671875 C 3.570312 -6.640625 5.003906 -11.476562 7.109375 -16.1875 C 9.210938 -20.90625 11.707031 -25.316406 14.59375 -29.421875 C 15.96875 -31.398438 17.4375 -33.335938 19 -35.234375 C 20.570312 -37.140625 22.296875 -38.851562 24.171875 -40.375 C 25.242188 -41.1875 26.410156 -41.957031 27.671875 -42.6875 C 28.941406 -43.425781 30.25 -43.859375 31.59375 -43.984375 C 32.9375 -44.109375 34.238281 -43.664062 35.5 -42.65625 C 37.070312 -41.332031 37.984375 -39.742188 38.234375 -37.890625 C 38.492188 -36.046875 38.5 -34.1875 38.25 -32.3125 C 37.53125 -27.195312 35.957031 -22.304688 33.53125 -17.640625 C 33.28125 -17.128906 32.898438 -16.925781 32.390625 -17.03125 C 31.878906 -17.132812 31.367188 -17.390625 30.859375 -17.796875 C 30.359375 -18.203125 29.96875 -18.65625 29.6875 -19.15625 C 29.40625 -19.664062 29.367188 -20.125 29.578125 -20.53125 C 30.691406 -22.550781 31.628906 -24.648438 32.390625 -26.828125 C 33.148438 -29.015625 33.707031 -31.25 34.0625 -33.53125 C 34.21875 -34.4375 34.359375 -35.394531 34.484375 -36.40625 C 34.609375 -37.425781 34.566406 -38.394531 34.359375 -39.3125 C 34.265625 -39.71875 34.191406 -39.941406 34.140625 -39.984375 C 34.085938 -40.035156 33.859375 -40.0625 33.453125 -40.0625 C 33.296875 -40.019531 33.078125 -39.945312 32.796875 -39.84375 C 32.523438 -39.738281 32.3125 -39.660156 32.15625 -39.609375 C 31.601562 -39.359375 31.082031 -39.09375 30.59375 -38.8125 C 30.113281 -38.53125 29.648438 -38.238281 29.203125 -37.9375 C 26.054688 -35.8125 23.28125 -33.140625 20.875 -29.921875 C 18.46875 -26.703125 16.347656 -23.46875 14.515625 -20.21875 C 12.640625 -16.820312 10.976562 -13.257812 9.53125 -9.53125 C 8.09375 -5.8125 7.117188 -2.023438 6.609375 1.828125 C 6.515625 2.890625 6.425781 3.953125 6.34375 5.015625 C 6.269531 6.078125 6.285156 7.144531 6.390625 8.21875 C 6.484375 9.226562 6.734375 9.945312 7.140625 10.375 C 7.546875 10.8125 8.285156 10.976562 9.359375 10.875 C 11.128906 10.71875 12.847656 10.171875 14.515625 9.234375 C 16.191406 8.296875 17.765625 7.375 19.234375 6.46875 C 22.378906 4.488281 25.382812 2.304688 28.25 -0.078125 C 31.113281 -2.460938 33.8125 -5.019531 36.34375 -7.75 Z M 36.34375 -7.75 "/></g></g></g><g fill="#ffffff" fill-opacity="1"><g transform="translate(43.295369, 261.310713)"><g><path d="M 8.890625 -10.03125 C 9.097656 -8.0625 8.9375 -6.125 8.40625 -4.21875 C 7.875 -2.320312 7 -0.613281 5.78125 0.90625 C 4.664062 2.382812 3.304688 3.335938 1.703125 3.765625 C 0.109375 4.191406 -1.394531 3.617188 -2.8125 2.046875 C -4.082031 0.628906 -4.613281 -0.910156 -4.40625 -2.578125 C -4.207031 -4.253906 -3.550781 -5.878906 -2.4375 -7.453125 C -1.320312 -9.023438 -0.03125 -10.429688 1.4375 -11.671875 C 2.914062 -12.910156 4.257812 -13.835938 5.46875 -14.453125 C 5.976562 -14.703125 6.550781 -14.597656 7.1875 -14.140625 C 7.820312 -13.679688 8.316406 -13.109375 8.671875 -12.421875 C 9.023438 -11.742188 9.023438 -11.203125 8.671875 -10.796875 C 8.765625 -10.546875 8.835938 -10.289062 8.890625 -10.03125 Z M 3.71875 -4.9375 C 4.175781 -5.957031 4.507812 -7.023438 4.71875 -8.140625 C 3.957031 -7.472656 3.269531 -6.757812 2.65625 -6 C 1.894531 -5.039062 1.265625 -4.003906 0.765625 -2.890625 C 0.609375 -2.640625 0.476562 -2.382812 0.375 -2.125 C 0.28125 -1.875 0.179688 -1.625 0.078125 -1.375 C 0.078125 -1.320312 0.0625 -1.191406 0.03125 -0.984375 C 0.0078125 -0.785156 -0.0234375 -0.609375 -0.078125 -0.453125 C 0.222656 -0.710938 0.515625 -0.929688 0.796875 -1.109375 C 1.078125 -1.285156 1.34375 -1.5 1.59375 -1.75 C 2.457031 -2.707031 3.164062 -3.769531 3.71875 -4.9375 Z M 3.71875 -4.9375 "/></g></g></g><g fill="#ffffff" fill-opacity="1"><g transform="translate(57.361174, 261.310713)"><g><path d="M 35.4375 -9.890625 C 35.9375 -10.140625 36.441406 -10.085938 36.953125 -9.734375 C 37.460938 -9.378906 37.789062 -8.921875 37.9375 -8.359375 C 38.09375 -7.804688 37.835938 -7.351562 37.171875 -7 C 34.898438 -5.675781 32.570312 -4.28125 30.1875 -2.8125 C 27.800781 -1.34375 25.34375 -0.175781 22.8125 0.6875 C 21.394531 1.144531 20 1.054688 18.625 0.421875 C 17.257812 -0.210938 16.5 -1.367188 16.34375 -3.046875 C 16.289062 -3.804688 16.363281 -4.578125 16.5625 -5.359375 C 16.769531 -6.140625 17.003906 -6.890625 17.265625 -7.609375 C 17.460938 -8.109375 17.660156 -8.613281 17.859375 -9.125 C 18.066406 -9.632812 18.25 -10.140625 18.40625 -10.640625 C 12.21875 -7.191406 6.742188 -2.832031 1.984375 2.4375 C 1.722656 2.738281 1.351562 2.800781 0.875 2.625 C 0.394531 2.445312 0.0234375 2.253906 -0.234375 2.046875 C -1.898438 0.785156 -2.734375 -0.640625 -2.734375 -2.234375 C -2.734375 -3.835938 -2.429688 -5.550781 -1.828125 -7.375 C -0.253906 -11.726562 1.46875 -16.035156 3.34375 -20.296875 C 5.269531 -24.609375 7.382812 -28.828125 9.6875 -32.953125 C 12 -37.085938 14.445312 -41.109375 17.03125 -45.015625 C 17.28125 -45.421875 17.660156 -45.546875 18.171875 -45.390625 C 18.679688 -45.234375 19.160156 -44.925781 19.609375 -44.46875 C 20.066406 -44.019531 20.410156 -43.515625 20.640625 -42.953125 C 20.867188 -42.398438 20.859375 -41.921875 20.609375 -41.515625 C 16.140625 -34.828125 12.207031 -27.90625 8.8125 -20.75 C 7.144531 -17.207031 5.578125 -13.585938 4.109375 -9.890625 C 3.492188 -8.316406 2.882812 -6.664062 2.28125 -4.9375 C 4.207031 -6.71875 6.207031 -8.367188 8.28125 -9.890625 C 10.363281 -11.410156 12.519531 -12.828125 14.75 -14.140625 C 15.863281 -14.796875 16.941406 -15.25 17.984375 -15.5 C 19.023438 -15.757812 20.078125 -15.410156 21.140625 -14.453125 C 21.992188 -13.640625 22.484375 -12.710938 22.609375 -11.671875 C 22.742188 -10.628906 22.679688 -9.578125 22.421875 -8.515625 C 22.273438 -7.648438 22.035156 -6.8125 21.703125 -6 C 21.378906 -5.195312 21.085938 -4.390625 20.828125 -3.578125 C 23.265625 -4.335938 25.757812 -5.257812 28.3125 -6.34375 C 30.875 -7.4375 33.25 -8.617188 35.4375 -9.890625 Z M 35.4375 -9.890625 "/></g></g></g><g fill="#ffffff" fill-opacity="1"><g transform="translate(93.171944, 261.310713)"><g><path d="M 19.765625 -9.5 C 20.273438 -9.90625 20.832031 -9.96875 21.4375 -9.6875 C 22.050781 -9.414062 22.484375 -9 22.734375 -8.4375 C 22.984375 -7.882812 22.859375 -7.453125 22.359375 -7.140625 C 19.367188 -5.171875 16.285156 -3.171875 13.109375 -1.140625 C 9.941406 0.890625 6.660156 2.507812 3.265625 3.71875 C 2.003906 4.175781 0.765625 4.367188 -0.453125 4.296875 C -1.671875 4.222656 -2.738281 3.601562 -3.65625 2.4375 C -4.5625 1.21875 -4.875 -0.132812 -4.59375 -1.625 C -4.320312 -3.125 -3.753906 -4.554688 -2.890625 -5.921875 C -2.023438 -7.296875 -1.160156 -8.441406 -0.296875 -9.359375 C 0.460938 -10.210938 1.375 -10.992188 2.4375 -11.703125 C 3.5 -12.410156 4.597656 -12.816406 5.734375 -12.921875 C 6.878906 -13.023438 7.929688 -12.546875 8.890625 -11.484375 C 9.753906 -10.617188 10.109375 -9.753906 9.953125 -8.890625 C 9.804688 -8.035156 9.335938 -7.238281 8.546875 -6.5 C 7.765625 -5.757812 6.84375 -5.085938 5.78125 -4.484375 C 4.71875 -3.878906 3.691406 -3.347656 2.703125 -2.890625 C 1.710938 -2.429688 0.9375 -2.050781 0.375 -1.75 C 0.125 -1.1875 -0.078125 -0.628906 -0.234375 -0.078125 C 0.878906 -0.222656 2.320312 -0.625 4.09375 -1.28125 C 5.875 -1.945312 7.765625 -2.757812 9.765625 -3.71875 C 11.765625 -4.6875 13.648438 -5.675781 15.421875 -6.6875 C 17.203125 -7.707031 18.648438 -8.644531 19.765625 -9.5 Z M 19.765625 -9.5 "/></g></g></g><g fill="#ffffff" fill-opacity="1"><g transform="translate(113.320255, 261.310713)"><g><path d="M 30.40625 -9.8125 C 30.96875 -10.0625 31.476562 -10.007812 31.9375 -9.65625 C 32.394531 -9.300781 32.660156 -8.859375 32.734375 -8.328125 C 32.804688 -7.796875 32.515625 -7.378906 31.859375 -7.078125 C 29.929688 -6.109375 28.03125 -5.078125 26.15625 -3.984375 C 24.28125 -2.898438 22.40625 -1.773438 20.53125 -0.609375 C 19.414062 0.0976562 18.222656 0.867188 16.953125 1.703125 C 15.679688 2.546875 14.363281 3.144531 13 3.5 C 11.6875 3.800781 10.535156 3.441406 9.546875 2.421875 C 8.554688 1.410156 8.160156 0.25 8.359375 -1.0625 C 8.460938 -1.820312 8.65625 -2.566406 8.9375 -3.296875 C 9.21875 -4.035156 9.535156 -4.785156 9.890625 -5.546875 C 5.523438 -3.117188 1.722656 0.0195312 -1.515625 3.875 C -1.921875 4.382812 -2.441406 4.445312 -3.078125 4.0625 C -3.710938 3.6875 -4.253906 3.144531 -4.703125 2.4375 C -5.160156 1.726562 -5.34375 1.144531 -5.25 0.6875 C -4.738281 -1.238281 -4.050781 -3.125 -3.1875 -4.96875 C -2.332031 -6.820312 -1.394531 -8.640625 -0.375 -10.421875 C -0.125 -10.867188 0.25 -11.054688 0.75 -10.984375 C 1.257812 -10.910156 1.769531 -10.671875 2.28125 -10.265625 C 2.789062 -9.859375 3.171875 -9.390625 3.421875 -8.859375 C 3.671875 -8.328125 3.695312 -7.882812 3.5 -7.53125 C 3.5 -7.476562 3.484375 -7.425781 3.453125 -7.375 C 3.429688 -7.320312 3.394531 -7.269531 3.34375 -7.21875 C 6.789062 -9.601562 10.515625 -11.40625 14.515625 -12.625 C 15.078125 -12.820312 15.660156 -12.703125 16.265625 -12.265625 C 16.878906 -11.835938 17.347656 -11.304688 17.671875 -10.671875 C 18.003906 -10.046875 18.019531 -9.453125 17.71875 -8.890625 C 17.0625 -7.828125 16.441406 -6.75 15.859375 -5.65625 C 15.273438 -4.570312 14.703125 -3.472656 14.140625 -2.359375 C 16.773438 -3.671875 19.484375 -4.9375 22.265625 -6.15625 C 25.054688 -7.375 27.769531 -8.59375 30.40625 -9.8125 Z M 30.40625 -9.8125 "/></g></g></g><g fill="#ffffff" fill-opacity="1"><g transform="translate(143.960893, 261.310713)"><g><path d="M 19.078125 -13.3125 C 19.484375 -13.457031 19.953125 -13.351562 20.484375 -13 C 21.015625 -12.644531 21.46875 -12.210938 21.84375 -11.703125 C 22.226562 -11.203125 22.457031 -10.722656 22.53125 -10.265625 C 22.613281 -9.804688 22.398438 -9.523438 21.890625 -9.421875 C 16.316406 -7.898438 10.59375 -7.648438 4.71875 -8.671875 C 4.257812 -8.765625 3.8125 -9.023438 3.375 -9.453125 C 2.945312 -9.890625 2.617188 -10.375 2.390625 -10.90625 C 2.160156 -11.4375 2.125 -11.878906 2.28125 -12.234375 C 2.4375 -12.585938 2.867188 -12.691406 3.578125 -12.546875 C 8.691406 -11.679688 13.859375 -11.9375 19.078125 -13.3125 Z M 19.078125 -13.3125 "/></g></g></g><g fill="#ffffff" fill-opacity="1"><g transform="translate(168.747118, 261.310713)"><g><path d="M 49.5 -39.765625 C 51.570312 -37.785156 52.773438 -35.59375 53.109375 -33.1875 C 53.441406 -30.78125 53.210938 -28.347656 52.421875 -25.890625 C 51.640625 -23.429688 50.613281 -21.160156 49.34375 -19.078125 C 47.269531 -15.585938 44.75 -12.429688 41.78125 -9.609375 C 38.8125 -6.796875 35.707031 -4.226562 32.46875 -1.90625 C 29.019531 0.582031 25.457031 2.835938 21.78125 4.859375 C 18.101562 6.890625 14.316406 8.691406 10.421875 10.265625 C 10.316406 10.867188 10.210938 11.398438 10.109375 11.859375 C 10.054688 12.460938 9.816406 12.773438 9.390625 12.796875 C 8.960938 12.828125 8.476562 12.675781 7.9375 12.34375 C 7.40625 12.019531 6.945312 11.617188 6.5625 11.140625 C 6.1875 10.660156 6.023438 10.21875 6.078125 9.8125 C 6.179688 9.25 6.285156 8.640625 6.390625 7.984375 C 6.234375 7.421875 6.28125 7.015625 6.53125 6.765625 C 7.75 -0.078125 9.914062 -6.601562 13.03125 -12.8125 C 16.15625 -19.019531 20.148438 -24.632812 25.015625 -29.65625 C 25.316406 -30.007812 25.734375 -30.097656 26.265625 -29.921875 C 26.796875 -29.742188 27.289062 -29.410156 27.75 -28.921875 C 28.207031 -28.441406 28.535156 -27.9375 28.734375 -27.40625 C 28.941406 -26.875 28.867188 -26.457031 28.515625 -26.15625 C 24.410156 -21.84375 20.910156 -17.078125 18.015625 -11.859375 C 15.128906 -6.640625 12.953125 -1.164062 11.484375 4.5625 C 14.671875 3.144531 17.769531 1.5625 20.78125 -0.1875 C 23.800781 -1.9375 26.734375 -3.828125 29.578125 -5.859375 C 32.367188 -7.929688 35.039062 -10.160156 37.59375 -12.546875 C 40.15625 -14.929688 42.425781 -17.539062 44.40625 -20.375 C 45.007812 -21.238281 45.65625 -22.289062 46.34375 -23.53125 C 47.03125 -24.769531 47.660156 -26.125 48.234375 -27.59375 C 48.816406 -29.0625 49.195312 -30.503906 49.375 -31.921875 C 49.550781 -33.347656 49.425781 -34.644531 49 -35.8125 C 48.570312 -36.976562 47.671875 -37.890625 46.296875 -38.546875 C 44.929688 -39.203125 43.445312 -39.566406 41.84375 -39.640625 C 40.25 -39.722656 38.71875 -39.6875 37.25 -39.53125 C 35.375 -39.382812 33.507812 -39.144531 31.65625 -38.8125 C 29.8125 -38.476562 27.976562 -38.0625 26.15625 -37.5625 C 18.957031 -35.582031 12.265625 -32.460938 6.078125 -28.203125 C 5.671875 -27.898438 5.203125 -27.863281 4.671875 -28.09375 C 4.140625 -28.320312 3.644531 -28.675781 3.1875 -29.15625 C 2.738281 -29.632812 2.4375 -30.113281 2.28125 -30.59375 C 2.125 -31.082031 2.222656 -31.453125 2.578125 -31.703125 C 6.535156 -34.492188 10.742188 -36.828125 15.203125 -38.703125 C 19.660156 -40.578125 24.273438 -41.945312 29.046875 -42.8125 C 31.273438 -43.207031 33.628906 -43.492188 36.109375 -43.671875 C 38.597656 -43.859375 41.003906 -43.679688 43.328125 -43.140625 C 45.660156 -42.609375 47.71875 -41.484375 49.5 -39.765625 Z M 49.5 -39.765625 "/></g></g></g><g fill="#ffffff" fill-opacity="1"><g transform="translate(224.250012, 261.310713)"><g><path d="M 26.6875 -9.65625 C 27.144531 -10.113281 27.648438 -10.210938 28.203125 -9.953125 C 28.765625 -9.703125 29.160156 -9.296875 29.390625 -8.734375 C 29.617188 -8.179688 29.53125 -7.675781 29.125 -7.21875 C 27.601562 -5.644531 26.054688 -4.085938 24.484375 -2.546875 C 22.910156 -1.003906 21.238281 0.347656 19.46875 1.515625 C 18.601562 2.128906 17.710938 2.585938 16.796875 2.890625 C 15.890625 3.191406 14.953125 3.039062 13.984375 2.4375 C 12.972656 1.820312 12.300781 1.019531 11.96875 0.03125 C 11.644531 -0.945312 11.554688 -2 11.703125 -3.125 C 11.703125 -3.164062 11.703125 -3.210938 11.703125 -3.265625 C 11.703125 -3.316406 11.726562 -3.367188 11.78125 -3.421875 C 10.5625 -2.304688 9.316406 -1.238281 8.046875 -0.21875 C 6.785156 0.789062 5.445312 1.703125 4.03125 2.515625 C 2.757812 3.273438 1.476562 3.71875 0.1875 3.84375 C -1.101562 3.96875 -2.253906 3.347656 -3.265625 1.984375 C -4.128906 0.816406 -4.429688 -0.578125 -4.171875 -2.203125 C -3.921875 -3.828125 -3.378906 -5.398438 -2.546875 -6.921875 C -1.710938 -8.441406 -0.890625 -9.679688 -0.078125 -10.640625 C 0.222656 -10.992188 0.640625 -11.082031 1.171875 -10.90625 C 1.710938 -10.726562 2.207031 -10.410156 2.65625 -9.953125 C 3.113281 -9.503906 3.441406 -9.007812 3.640625 -8.46875 C 3.847656 -7.9375 3.800781 -7.492188 3.5 -7.140625 C 2.9375 -6.484375 2.453125 -5.785156 2.046875 -5.046875 C 1.640625 -4.316406 1.285156 -3.570312 0.984375 -2.8125 C 0.628906 -2.050781 0.378906 -1.394531 0.234375 -0.84375 C 0.835938 -1.144531 1.429688 -1.507812 2.015625 -1.9375 C 2.597656 -2.363281 3.164062 -2.78125 3.71875 -3.1875 C 5.59375 -4.65625 7.378906 -6.1875 9.078125 -7.78125 C 10.773438 -9.382812 12.488281 -10.972656 14.21875 -12.546875 C 14.726562 -13.003906 15.296875 -13.039062 15.921875 -12.65625 C 16.554688 -12.28125 17.085938 -11.757812 17.515625 -11.09375 C 17.953125 -10.4375 18.09375 -9.859375 17.9375 -9.359375 C 17.632812 -8.234375 17.316406 -7.113281 16.984375 -6 C 16.660156 -4.882812 16.375 -3.769531 16.125 -2.65625 C 16.070312 -2.457031 16.019531 -2.234375 15.96875 -1.984375 C 17.03125 -2.234375 18.242188 -2.8125 19.609375 -3.71875 C 20.984375 -4.632812 22.300781 -5.648438 23.5625 -6.765625 C 24.832031 -7.878906 25.875 -8.84375 26.6875 -9.65625 Z M 26.6875 -9.65625 "/></g></g></g><g fill="#ffffff" fill-opacity="1"><g transform="translate(251.241157, 261.310713)"><g><path d="M 42.65625 -9.421875 C 43.15625 -9.878906 43.671875 -9.96875 44.203125 -9.6875 C 44.742188 -9.414062 45.113281 -9.023438 45.3125 -8.515625 C 45.519531 -8.003906 45.394531 -7.546875 44.9375 -7.140625 C 43.113281 -5.671875 41.238281 -4.226562 39.3125 -2.8125 C 37.382812 -1.394531 35.40625 -0.101562 33.375 1.0625 C 32.613281 1.519531 31.789062 1.960938 30.90625 2.390625 C 30.019531 2.828125 29.117188 3.046875 28.203125 3.046875 C 27.242188 3.097656 26.359375 2.832031 25.546875 2.25 C 24.734375 1.664062 24.203125 0.890625 23.953125 -0.078125 C 23.796875 -0.484375 23.742188 -0.890625 23.796875 -1.296875 C 23.847656 -1.703125 23.925781 -2.109375 24.03125 -2.515625 C 24.03125 -2.515625 24.03125 -2.523438 24.03125 -2.546875 C 24.03125 -2.566406 24.03125 -2.578125 24.03125 -2.578125 C 23.769531 -2.484375 23.59375 -2.410156 23.5 -2.359375 C 23.144531 -2.148438 22.785156 -1.90625 22.421875 -1.625 C 22.066406 -1.351562 21.710938 -1.09375 21.359375 -0.84375 C 20.648438 -0.332031 19.953125 0.171875 19.265625 0.671875 C 18.585938 1.179688 17.894531 1.691406 17.1875 2.203125 C 16.625 2.554688 16.023438 2.554688 15.390625 2.203125 C 14.765625 1.847656 14.25 1.351562 13.84375 0.71875 C 13.4375 0.0820312 13.304688 -0.507812 13.453125 -1.0625 C 13.609375 -1.875 13.785156 -2.707031 13.984375 -3.5625 C 14.191406 -4.425781 14.394531 -5.289062 14.59375 -6.15625 C 14.644531 -6.363281 14.707031 -6.59375 14.78125 -6.84375 C 14.863281 -7.09375 14.929688 -7.347656 14.984375 -7.609375 C 14.671875 -7.398438 14.363281 -7.207031 14.0625 -7.03125 C 13.757812 -6.851562 13.484375 -6.6875 13.234375 -6.53125 C 11.554688 -5.625 9.90625 -4.613281 8.28125 -3.5 C 6.8125 -2.4375 5.378906 -1.304688 3.984375 -0.109375 C 2.597656 1.078125 1.269531 2.304688 0 3.578125 C -0.457031 3.984375 -0.988281 4.03125 -1.59375 3.71875 C -2.207031 3.414062 -2.738281 2.957031 -3.1875 2.34375 C -3.644531 1.738281 -3.847656 1.210938 -3.796875 0.765625 C -3.296875 -3.242188 -2.128906 -6.972656 -0.296875 -10.421875 C -0.046875 -10.867188 0.328125 -11.054688 0.828125 -10.984375 C 1.335938 -10.910156 1.847656 -10.671875 2.359375 -10.265625 C 2.867188 -9.859375 3.257812 -9.398438 3.53125 -8.890625 C 3.8125 -8.390625 3.851562 -7.9375 3.65625 -7.53125 C 3.300781 -6.863281 2.941406 -6.148438 2.578125 -5.390625 C 4.304688 -6.765625 6.117188 -8.019531 8.015625 -9.15625 C 9.921875 -10.300781 11.863281 -11.328125 13.84375 -12.234375 C 15.101562 -12.796875 16.328125 -12.769531 17.515625 -12.15625 C 18.710938 -11.550781 19.390625 -10.515625 19.546875 -9.046875 C 19.640625 -8.441406 19.609375 -7.804688 19.453125 -7.140625 C 19.304688 -6.484375 19.15625 -5.851562 19 -5.25 C 19.5625 -5.65625 20.097656 -6.007812 20.609375 -6.3125 C 21.316406 -6.71875 22.0625 -7.007812 22.84375 -7.1875 C 23.632812 -7.363281 24.4375 -7.273438 25.25 -6.921875 C 26.050781 -6.566406 26.742188 -6.007812 27.328125 -5.25 C 27.910156 -4.488281 28.253906 -3.675781 28.359375 -2.8125 C 28.359375 -2.507812 28.359375 -2.15625 28.359375 -1.75 C 28.867188 -1.851562 29.707031 -2.171875 30.875 -2.703125 C 32.039062 -3.234375 33.34375 -3.863281 34.78125 -4.59375 C 36.226562 -5.332031 37.660156 -6.128906 39.078125 -6.984375 C 40.492188 -7.847656 41.6875 -8.660156 42.65625 -9.421875 Z M 42.65625 -9.421875 "/></g></g></g><g fill="#ffffff" fill-opacity="1"><g transform="translate(294.046822, 261.310713)"><g><path d="M 28.515625 -9.734375 C 29.015625 -10.140625 29.554688 -10.203125 30.140625 -9.921875 C 30.722656 -9.640625 31.164062 -9.21875 31.46875 -8.65625 C 31.78125 -8.101562 31.707031 -7.625 31.25 -7.21875 C 29.476562 -5.644531 27.691406 -4.097656 25.890625 -2.578125 C 24.085938 -1.054688 22.171875 0.28125 20.140625 1.4375 C 19.234375 2 18.234375 2.519531 17.140625 3 C 16.054688 3.476562 14.957031 3.644531 13.84375 3.5 C 12.675781 3.394531 11.660156 2.9375 10.796875 2.125 C 9.929688 1.3125 9.320312 0.347656 8.96875 -0.765625 C 8.769531 -1.472656 8.691406 -2.15625 8.734375 -2.8125 C 8.785156 -3.46875 8.914062 -4.101562 9.125 -4.71875 C 7.09375 -3.394531 5.164062 -1.882812 3.34375 -0.1875 C 1.519531 1.507812 -0.554688 2.8125 -2.890625 3.71875 C -3.398438 3.925781 -3.941406 3.835938 -4.515625 3.453125 C -5.097656 3.078125 -5.566406 2.582031 -5.921875 1.96875 C -6.285156 1.363281 -6.414062 0.804688 -6.3125 0.296875 C -5.800781 -1.984375 -4.925781 -4.195312 -3.6875 -6.34375 C -2.445312 -8.5 -0.890625 -10.285156 0.984375 -11.703125 C 2.503906 -12.816406 4.113281 -13.257812 5.8125 -13.03125 C 7.507812 -12.8125 8.914062 -11.988281 10.03125 -10.5625 C 10.4375 -10.71875 10.84375 -10.875 11.25 -11.03125 C 11.757812 -11.125 12.34375 -10.945312 13 -10.5 C 13.40625 -10.1875 13.785156 -9.816406 14.140625 -9.390625 C 14.492188 -8.960938 14.695312 -8.546875 14.75 -8.140625 C 14.800781 -7.878906 14.773438 -7.648438 14.671875 -7.453125 C 14.617188 -6.835938 14.488281 -6.25 14.28125 -5.6875 C 14.082031 -5.132812 13.882812 -4.554688 13.6875 -3.953125 C 13.476562 -3.398438 13.320312 -2.84375 13.21875 -2.28125 C 13.125 -1.71875 13 -1.132812 12.84375 -0.53125 C 12.894531 -0.53125 12.929688 -0.53125 12.953125 -0.53125 C 12.984375 -0.53125 13.023438 -0.53125 13.078125 -0.53125 C 14.191406 -0.6875 15.484375 -1.117188 16.953125 -1.828125 C 18.421875 -2.535156 19.898438 -3.382812 21.390625 -4.375 C 22.890625 -5.363281 24.273438 -6.335938 25.546875 -7.296875 C 26.816406 -8.265625 27.804688 -9.078125 28.515625 -9.734375 Z M 1.0625 -4.640625 C 2.070312 -5.453125 3.054688 -6.25 4.015625 -7.03125 C 4.984375 -7.820312 6.003906 -8.546875 7.078125 -9.203125 C 7.023438 -9.203125 7 -9.203125 7 -9.203125 C 6.894531 -9.203125 6.765625 -9.1875 6.609375 -9.15625 C 6.460938 -9.132812 6.3125 -9.097656 6.15625 -9.046875 C 5.75 -8.941406 5.351562 -8.765625 4.96875 -8.515625 C 4.59375 -8.265625 4.253906 -8.007812 3.953125 -7.75 C 3.398438 -7.300781 2.894531 -6.820312 2.4375 -6.3125 C 1.976562 -5.800781 1.570312 -5.296875 1.21875 -4.796875 C 1.164062 -4.742188 1.140625 -4.703125 1.140625 -4.671875 C 1.140625 -4.648438 1.113281 -4.640625 1.0625 -4.640625 Z M 1.0625 -4.640625 "/></g></g></g><g fill="#ffffff" fill-opacity="1"><g transform="translate(323.014758, 261.310713)"><g><path d="M 30.40625 -9.8125 C 30.96875 -10.0625 31.476562 -10.007812 31.9375 -9.65625 C 32.394531 -9.300781 32.660156 -8.859375 32.734375 -8.328125 C 32.804688 -7.796875 32.515625 -7.378906 31.859375 -7.078125 C 29.929688 -6.109375 28.03125 -5.078125 26.15625 -3.984375 C 24.28125 -2.898438 22.40625 -1.773438 20.53125 -0.609375 C 19.414062 0.0976562 18.222656 0.867188 16.953125 1.703125 C 15.679688 2.546875 14.363281 3.144531 13 3.5 C 11.6875 3.800781 10.535156 3.441406 9.546875 2.421875 C 8.554688 1.410156 8.160156 0.25 8.359375 -1.0625 C 8.460938 -1.820312 8.65625 -2.566406 8.9375 -3.296875 C 9.21875 -4.035156 9.535156 -4.785156 9.890625 -5.546875 C 5.523438 -3.117188 1.722656 0.0195312 -1.515625 3.875 C -1.921875 4.382812 -2.441406 4.445312 -3.078125 4.0625 C -3.710938 3.6875 -4.253906 3.144531 -4.703125 2.4375 C -5.160156 1.726562 -5.34375 1.144531 -5.25 0.6875 C -4.738281 -1.238281 -4.050781 -3.125 -3.1875 -4.96875 C -2.332031 -6.820312 -1.394531 -8.640625 -0.375 -10.421875 C -0.125 -10.867188 0.25 -11.054688 0.75 -10.984375 C 1.257812 -10.910156 1.769531 -10.671875 2.28125 -10.265625 C 2.789062 -9.859375 3.171875 -9.390625 3.421875 -8.859375 C 3.671875 -8.328125 3.695312 -7.882812 3.5 -7.53125 C 3.5 -7.476562 3.484375 -7.425781 3.453125 -7.375 C 3.429688 -7.320312 3.394531 -7.269531 3.34375 -7.21875 C 6.789062 -9.601562 10.515625 -11.40625 14.515625 -12.625 C 15.078125 -12.820312 15.660156 -12.703125 16.265625 -12.265625 C 16.878906 -11.835938 17.347656 -11.304688 17.671875 -10.671875 C 18.003906 -10.046875 18.019531 -9.453125 17.71875 -8.890625 C 17.0625 -7.828125 16.441406 -6.75 15.859375 -5.65625 C 15.273438 -4.570312 14.703125 -3.472656 14.140625 -2.359375 C 16.773438 -3.671875 19.484375 -4.9375 22.265625 -6.15625 C 25.054688 -7.375 27.769531 -8.59375 30.40625 -9.8125 Z M 30.40625 -9.8125 "/></g></g></g><g fill="#ffffff" fill-opacity="1"><g transform="translate(353.655412, 261.310713)"><g><path d="M 14.375 -9.421875 C 14.820312 -9.828125 15.335938 -9.914062 15.921875 -9.6875 C 16.503906 -9.46875 16.921875 -9.085938 17.171875 -8.546875 C 17.429688 -8.015625 17.332031 -7.546875 16.875 -7.140625 C 15.65625 -6.128906 14.398438 -5.128906 13.109375 -4.140625 C 11.816406 -3.148438 10.515625 -2.203125 9.203125 -1.296875 C 8.085938 -0.585938 6.921875 0.144531 5.703125 0.90625 C 4.484375 1.664062 3.242188 2.203125 1.984375 2.515625 C 0.960938 2.660156 0.0078125 2.503906 -0.875 2.046875 C -1.757812 1.597656 -2.476562 0.953125 -3.03125 0.109375 C -3.59375 -0.722656 -3.875 -1.644531 -3.875 -2.65625 C -3.925781 -4.332031 -3.46875 -6.066406 -2.5 -7.859375 C -1.539062 -9.660156 -0.65625 -11.273438 0.15625 -12.703125 C 0.457031 -13.148438 0.859375 -13.320312 1.359375 -13.21875 C 1.867188 -13.125 2.378906 -12.875 2.890625 -12.46875 C 3.398438 -12.0625 3.78125 -11.601562 4.03125 -11.09375 C 4.28125 -10.59375 4.304688 -10.164062 4.109375 -9.8125 C 3.453125 -8.695312 2.84375 -7.566406 2.28125 -6.421875 C 1.71875 -5.285156 1.210938 -4.132812 0.765625 -2.96875 C 0.660156 -2.664062 0.53125 -2.335938 0.375 -1.984375 C 1.445312 -2.128906 2.84375 -2.609375 4.5625 -3.421875 C 6.28125 -4.234375 8.039062 -5.179688 9.84375 -6.265625 C 11.644531 -7.359375 13.15625 -8.410156 14.375 -9.421875 Z M 7.53125 -17.328125 C 7.226562 -16.722656 6.707031 -16.570312 5.96875 -16.875 C 5.226562 -17.175781 4.578125 -17.671875 4.015625 -18.359375 C 3.460938 -19.046875 3.316406 -19.664062 3.578125 -20.21875 C 4.023438 -21.132812 4.347656 -21.804688 4.546875 -22.234375 C 4.753906 -22.671875 4.859375 -22.890625 4.859375 -22.890625 C 5.171875 -23.335938 5.578125 -23.523438 6.078125 -23.453125 C 6.585938 -23.378906 7.082031 -23.140625 7.5625 -22.734375 C 8.039062 -22.328125 8.421875 -21.867188 8.703125 -21.359375 C 8.984375 -20.859375 9.019531 -20.40625 8.8125 -20 C 8.8125 -20 8.734375 -19.832031 8.578125 -19.5 C 8.429688 -19.164062 8.082031 -18.441406 7.53125 -17.328125 Z M 7.53125 -17.328125 "/></g></g></g></svg>